HIERARCHY
ROOT Hips
{
  OFFSET 74.0196 97.4445 -31.1285
  CHANNELS 6 Xposition Yposition Zposition Zrotation Xrotation Yrotation
  JOINT RightUpLeg
  {
    OFFSET -8.9458 -8.66707 0.101652
    CHANNELS 3 Zrotation Xrotation Yrotation
    JOINT RightLeg
    {
      OFFSET -2.94875e-013 -44.4227 1.3727
      CHANNELS 3 Zrotation Xrotation Yrotation
      JOINT RightFoot
      {
        OFFSET 0.253549 -42.0924 -1.46059
        CHANNELS 3 Zrotation Xrotation Yrotation
        JOINT RightToes
        {
          OFFSET 0.04 -4.41509 8.4991
          CHANNELS 3 Zrotation Xrotation Yrotation
          End Site
          {
            OFFSET -0.08 -0.137448 9.77979
          }
        }
      }
    }
  }
  JOINT Spine
  {
    OFFSET -5.68434e-014 11.8905 -6.39488e-014
    CHANNELS 3 Zrotation Xrotation Yrotation
    JOINT Spine1
    {
      OFFSET 5.68434e-014 25.6574 0.127663
      CHANNELS 3 Zrotation Xrotation Yrotation
      JOINT HEad
      {
        OFFSET 4.26326e-014 8.73416 0.011341
        CHANNELS 3 Zrotation Xrotation Yrotation
        End Site
        {
          OFFSET -0.29 12.7742 2.51395
        }
      }
      JOINT LeftShoulder1
      {
        OFFSET 8.99 -0.362252 -0.22
        CHANNELS 3 Zrotation Xrotation Yrotation
        JOINT LeftArm
        {
          OFFSET 10.2827 -0.00338 0.322123
          CHANNELS 3 Zrotation Xrotation Yrotation
          JOINT LeftForeArm
          {
            OFFSET 32.7669 0.099144 -1.42434
            CHANNELS 3 Zrotation Xrotation Yrotation
            JOINT LeftHand
            {
              OFFSET 27.5643 0.085362 1.02216
              CHANNELS 3 Zrotation Xrotation Yrotation
              End Site
              {
                OFFSET 16.7443 -0.6 1.50291
              }
            }
          }
        }
      }
      JOINT RightShoulder
      {
        OFFSET -8.99 -0.362252 -0.22
        CHANNELS 3 Zrotation Xrotation Yrotation
        JOINT RightArm
        {
          OFFSET -10.2827 -0.00338 0.322123
          CHANNELS 3 Zrotation Xrotation Yrotation
          JOINT RightForeArm
          {
            OFFSET -32.8971 0.099144 -1.42434
            CHANNELS 3 Zrotation Xrotation Yrotation
            JOINT RightHand
            {
              OFFSET -27.4921 0.085362 1.02216
              CHANNELS 3 Zrotation Xrotation Yrotation
              End Site
              {
                OFFSET -16.6312 -0.6 1.50291
              }
            }
          }
        }
      }
    }
  }
  JOINT LeftUpLeg
  {
    OFFSET 8.9458 -8.66707 0.101652
    CHANNELS 3 Zrotation Xrotation Yrotation
    JOINT LeftLeg
    {
      OFFSET 7.10543e-014 -44.4227 1.3727
      CHANNELS 3 Zrotation Xrotation Yrotation
      JOINT LeftFoot
      {
        OFFSET -0.253549 -42.0924 -1.46059
        CHANNELS 3 Zrotation Xrotation Yrotation
        JOINT LeftToes
        {
          OFFSET -0.04 -4.41509 8.4991
          CHANNELS 3 Zrotation Xrotation Yrotation
          End Site
          {
            OFFSET 0.08 -0.047448 9.77979
          }
        }
      }
    }
  }
}
MOTION
Frames:	21
Frame Time:	0.0166667
51.7749 94.9064 82.0124 2.22531 -11.8313 149.88 -11.1597 -16.2885 -2.95785 -5.22149 44.4263 13.073 13.6554 -0.144304 -1.02302 -20.6489 -32.9689 -3.45234 -1.58828 2.35358 2.80604 -3.6172 4.57775 5.76712 -2.09375 -5.5468 18.7235 -5.03302e-021 -3.88251e-019 1.21329e-020 -20.8887 -62.7162 -1.67284 -14.198 35.8564 -77.3939 28.8696 4.84307 -15.8005 18.433 5.76178 24.872 59.2665 -35.1714 35.9582 -0.925075 53.5668 127.26 -28.3958 14.1107 -21.6654 28.8611 -25.9699 4.19847 5.56884 22.4236 -17.8595 -20.7046 -0.0400498 1.3765 8.99231 -12.1596 -1.0416 
51.4939 94.9006 81.8192 1.75489 -11.4404 149.974 -11.7835 -14.9104 -3.10592 -3.8786 42.4074 11.3453 13.2802 -1.25999 -0.876043 -20.5553 -32.1628 -5.19706 -1.84056 2.84689 3.48372 -3.94166 5.54295 7.118 -2.72512 -5.79759 17.0182 -5.03302e-021 -3.88251e-019 1.21329e-020 -21.2034 -68.8815 2.90255 -12.8144 44.4779 -84.3119 30.6882 4.30534 -16.5031 17.0038 5.12385 23.4688 62.5451 -35.1293 37.7385 -0.990371 54.1951 127.077 -28.6709 14.0663 -21.3111 27.9652 -26.4364 4.30955 5.57981 23.2026 -17.9885 -20.5052 0.346005 1.42992 9.54861 -13.0573 -1.59131 
51.2551 94.7105 81.6285 1.3588 -10.8683 150.153 -12.4954 -13.2146 -2.89423 -2.43805 40.4122 9.15193 12.4271 -2.8391 -0.666569 -20.3483 -31.1087 -7.30641 -2.0708 3.24617 3.99348 -4.19442 6.31368 8.1393 -3.28337 -5.87003 15.7171 -5.03302e-021 -3.88251e-019 1.21329e-020 -24.7814 -68.3491 2.75932 -11.1264 45.3637 -90.2053 31.3241 3.93506 -17.3681 15.8365 4.64758 22.3975 65.4574 -35.1762 39.7949 -1.63009 54.8042 127.432 -28.9556 14.116 -21.3342 27.012 -26.923 4.49165 5.76924 24.312 -18.2442 -20.2351 0.704944 1.47196 10.4654 -14.5644 -2.46962 
51.0756 94.3661 81.4525 1.02379 -10.1682 150.43 -13.2331 -11.3488 -2.37875 -1.09551 38.6643 6.80378 11.3077 -5.17444 -0.402782 -19.5433 -29.3597 -9.31175 -2.27259 3.50287 4.34084 -4.34444 6.79538 8.8332 -3.7722 -5.76653 14.8081 -5.03302e-021 -3.88251e-019 1.21329e-020 -28.5262 -66.6571 1.401 -11.0987 44.7254 -93.5864 30.9841 3.5029 -19.1528 14.9924 4.33573 21.7146 67.7406 -35.3578 41.8695 -2.75066 55.3385 128.295 -29.1674 14.233 -21.6694 25.9972 -27.3829 4.63977 6.16273 25.575 -18.6063 -19.9646 0.977644 1.49767 11.5886 -16.4585 -3.50853 
50.9559 93.9641 81.2837 0.77509 -9.43357 150.83 -13.8987 -9.38793 -1.65519 0.0524564 37.1284 4.56004 10.2462 -8.12829 -0.132458 -17.933 -26.8227 -10.7639 -2.356 3.59321 4.53824 -4.36154 6.94706 9.23576 -4.18896 -5.5134 14.2331 -5.03302e-021 -3.88251e-019 1.21329e-020 -31.4505 -65.4143 -0.050527 -12.3152 44.3678 -95.0863 30.0883 3.06025 -21.4886 14.5154 4.1788 21.4081 69.2412 -35.6945 43.7108 -4.18156 55.699 129.537 -29.194 14.3775 -22.226 24.9687 -27.7248 4.67815 6.71225 26.6952 -19.0527 -19.7196 1.18663 1.51349 12.7408 -18.4383 -4.49255 
50.8983 93.6034 81.1275 0.606027 -8.75143 151.373 -14.4437 -7.46674 -0.830007 0.998597 35.7854 2.58248 9.49758 -11.2443 0.106118 -15.7514 -23.798 -11.5361 -2.32881 3.52573 4.61178 -4.24825 6.7924 9.39852 -4.53175 -5.17163 13.9083 -5.03302e-021 -3.88251e-019 1.21329e-020 -34.0133 -64.6533 -1.92484 -13.6737 44.2693 -95.8565 29.2176 2.70673 -23.5952 14.4231 4.16013 21.4127 69.9198 -36.1677 45.1119 -5.70299 55.8003 130.957 -28.9681 14.5104 -22.9035 23.9666 -27.9165 4.58446 7.33436 27.45 -19.5816 -19.5029 1.37516 1.52734 13.748 -20.1678 -5.22277 
50.8979 93.3832 80.9931 0.503733 -8.20588 152.076 -14.8435 -5.7573 -0.0153827 1.80715 34.6353 0.922006 9.14172 -13.9169 0.29527 -13.4587 -20.7469 -11.8596 -2.22493 3.33731 4.5873 -4.02492 6.40789 9.36847 -4.80646 -4.82264 13.7392 -5.03302e-021 -3.88251e-019 1.21329e-020 -36.7255 -64.3075 -4.48979 -14.336 44.324 -96.7908 28.8718 2.44398 -24.919 14.6893 4.25636 21.6344 69.8441 -36.7186 45.9344 -7.08899 55.6287 132.338 -28.533 14.6059 -23.5882 23.0336 -27.9746 4.39887 7.94435 27.6832 -20.2192 -19.3175 1.62245 1.55262 14.4569 -21.3393 -5.57332 
50.9413 93.3866 80.8896 0.454488 -7.86179 152.946 -15.1015 -4.44196 0.678734 2.5833 33.7254 -0.451412 9.09733 -15.6261 0.421253 -11.4146 -18.0287 -12.1056 -2.08113 3.07959 4.48744 -3.71953 5.89599 9.18076 -5.02709 -4.5319 13.6309 -5.03302e-021 -3.88251e-019 1.21329e-020 -39.9399 -64.2429 -7.80836 -14.0021 44.4339 -98.3115 29.229 2.24629 -25.2796 15.2363 4.43619 21.9741 69.1675 -37.2528 46.1161 -8.16375 55.2459 133.507 -28.038 14.6598 -24.1665 22.206 -27.9461 4.19349 8.47159 27.3089 -21.0019 -19.1881 2.03468 1.60854 14.75 -21.7405 -5.51841 
51.0098 93.6653 80.8228 0.453585 -7.74998 153.974 -15.2442 -3.65457 1.16232 3.44022 33.1109 -1.61234 9.20036 -16.0491 0.4609 -9.75793 -15.8012 -12.5631 -1.90993 2.80229 4.33012 -3.36222 5.35507 8.86542 -5.20863 -4.31405 13.4972 -5.03302e-021 -3.88251e-019 1.21329e-020 -43.7094 -64.2762 -11.6835 -12.8927 44.5166 -100.374 30.1118 2.11749 -24.85 15.9483 4.66224 22.3454 68.0865 -37.6525 45.6629 -8.84249 54.738 134.371 -27.6676 14.6863 -24.5547 21.5155 -27.8754 4.04005 8.85521 26.305 -21.951 -19.1598 2.72465 1.71747 14.5599 -21.2945 -5.11818 
51.0875 94.22 80.7996 0.497751 -7.85481 155.125 -15.3218 -3.45699 1.38786 4.46436 32.8508 -2.64232 9.27618 -15.0948 0.393133 -8.48075 -14.0764 -13.3188 -1.71584 2.54266 4.13426 -2.98232 4.85814 8.459 -5.35847 -4.12542 13.2719 -5.03302e-021 -3.88251e-019 1.21329e-020 -47.7569 -64.2172 -15.6917 -11.5014 44.522 -102.649 31.1625 2.06176 -24.0314 16.6991 4.89587 22.6838 66.805 -37.8058 44.6405 -9.1369 54.1646 134.92 -27.551 14.7046 -24.7208 20.9846 -27.7914 3.99068 9.04175 24.7272 -23.0484 -19.2798 3.77659 1.89944 13.8854 -20.0663 -4.48184 
51.1678 94.9973 80.8279 0.571538 -8.11361 156.336 -15.3995 -3.8317 1.35953 5.6831 32.9982 -3.60036 9.19763 -12.8996 0.221367 -7.565 -12.8529 -14.2016 -1.51768 2.32228 3.92546 -2.61549 4.44691 8.01063 -5.47343 -3.88898 12.9212 -5.03302e-021 -3.88251e-019 1.21329e-020 -51.591 -63.9185 -19.3101 -10.2934 44.4414 -104.768 32.0622 2.04761 -23.2578 17.3772 5.1027 22.9475 65.5163 -37.649 43.168 -9.13372 53.5489 135.208 -27.7049 14.7245 -24.6858 20.6111 -27.6963 4.07186 8.99758 22.6987 -24.2211 -19.5794 5.22499 2.16896 12.8043 -18.2497 -3.7396 
51.254 95.9017 80.9145 0.645413 -8.43476 157.525 -15.5324 -4.69786 1.11708 7.04614 33.6037 -4.51121 8.93377 -9.82366 -0.0151505 -7.08763 -12.226 -14.8088 -1.35096 2.15017 3.73345 -2.30107 4.13742 7.57647 -5.54408 -3.53381 12.45 -5.03302e-021 -3.88251e-019 1.21329e-020 -54.7155 -63.2958 -22.0919 -9.51745 44.2776 -106.49 32.6385 2.0256 -22.8259 17.9001 5.25704 23.1143 64.3877 -37.2008 41.4053 -8.95534 52.9026 135.325 -28.0282 14.7426 -24.515 20.359 -27.5739 4.28519 8.73328 20.395 -25.3459 -20.0723 7.04046 2.53297 11.4702 -16.1351 -3.03348 
51.3533 96.8215 81.0616 0.697697 -8.72684 158.62 -15.7271 -5.92839 0.70522 8.43221 34.6955 -5.36867 8.56099 -6.41536 -0.257333 -7.19461 -12.3645 -14.7232 -1.23472 2.02865 3.57926 -2.06554 3.93198 7.20446 -5.56315 -3.02867 11.9002 -5.03302e-021 -3.88251e-019 1.21329e-020 -56.8186 -62.3169 -23.8023 -9.17429 44.0104 -107.764 32.8582 1.96769 -22.8267 18.2213 5.34499 23.1805 63.5329 -36.5585 39.5258 -8.71441 52.2519 135.361 -28.3524 14.7496 -24.3022 20.1715 -27.4087 4.60794 8.31562 18.0266 -26.2699 -20.7522 9.11049 2.98517 10.0796 -14.038 -2.49129 
51.4671 97.6628 81.2562 0.732251 -8.91413 159.587 -15.9351 -7.34136 0.156662 9.6759 36.2025 -6.12884 8.21185 -3.27325 -0.458988 -7.93815 -13.348 -13.8258 -1.14956 1.95825 3.46796 -1.91683 3.83266 6.91821 -5.53394 -2.3949 11.3395 -5.03302e-021 -3.88251e-019 1.21329e-020 -57.8509 -60.9888 -24.4496 -9.08302 43.5934 -108.694 32.7805 1.88176 -23.1748 18.3306 5.36573 23.16 62.9889 -35.8519 37.6874 -8.48227 51.6408 135.38 -28.5182 14.7413 -24.1472 19.9792 -27.1772 4.98431 7.84464 15.7979 -26.8144 -21.5577 11.2365 3.4942 8.81352 -12.2024 -2.15973 
51.589 98.3398 81.4784 0.779009 -8.94048 160.428 -16.0791 -8.75911 -0.505326 10.6273 38.0175 -6.70761 7.99066 -0.893678 -0.600732 -9.18978 -15.0645 -12.3701 -1.05306 1.94287 3.39273 -1.83808 3.84947 6.70832 -5.47329 -1.69656 10.8431 -5.03302e-021 -3.88251e-019 1.21329e-020 -57.9884 -59.3518 -24.221 -8.98772 42.9815 -109.467 32.5183 1.79791 -23.6806 18.2519 5.33009 23.0785 62.7152 -35.1797 36.0176 -8.2865 51.1082 135.41 -28.441 14.7223 -24.1263 19.7333 -26.9303 5.32161 7.40892 14.0475 -26.7944 -22.2839 13.0825 3.96654 7.78033 -10.7297 -1.93474 
51.7178 98.8006 81.7141 0.868628 -8.77964 161.186 -16.0829 -10.0059 -1.2453 11.1983 39.9123 -7.04172 7.90784 0.574335 -0.687223 -10.7747 -17.3267 -10.7735 -0.948227 1.99656 3.32874 -1.7991 4.00228 6.53752 -5.40661 -1.01346 10.4704 -5.03302e-021 -3.88251e-019 1.21329e-020 -57.5253 -57.4689 -23.3764 -8.66842 42.159 -110.268 32.2071 1.74616 -24.1322 18.0358 5.2558 22.9623 62.6245 -34.5746 34.6099 -8.12727 50.6673 135.446 -28.133 14.7025 -24.2717 19.4076 -26.7326 5.50679 7.03118 13.063 -26.0341 -22.6002 14.2957 4.25862 6.98104 -9.55871 -1.57244 
51.8576 99.021 81.9518 1.01001 -8.42178 161.93 -15.9156 -10.9121 -1.9879 11.4044 41.5783 -7.17676 7.87896 1.35965 -0.733779 -12.6271 -20.0292 -9.43106 -0.89186 2.14361 3.24192 -1.77661 4.31394 6.35724 -5.35554 -0.41106 10.2473 -5.03302e-021 -3.88251e-019 1.21329e-020 -56.7675 -55.4033 -22.164 -8.02107 41.1486 -111.194 31.9663 1.74433 -24.3595 17.7468 5.16129 22.8261 62.6262 -34.0172 33.5214 -7.99616 50.3037 135.468 -27.6745 14.6916 -24.5714 18.9862 -26.6302 5.4463 6.66077 13.0152 -24.4277 -22.1508 14.5623 4.22006 6.30045 -8.48926 -0.821755 
52.0112 98.9803 82.1772 1.21001 -7.87838 162.721 -15.5831 -11.3539 -2.61469 11.3853 42.766 -7.31644 7.76545 1.83582 -0.753812 -14.7713 -23.1121 -8.67598 -0.904071 2.39146 3.10979 -1.74937 4.7913 6.1254 -5.32456 0.0767046 10.1584 -5.03302e-021 -3.88251e-019 1.21329e-020 -55.9691 -53.2002 -20.7921 -7.08056 40.0068 -112.227 31.8638 1.79866 -24.2724 17.4484 5.06108 22.6685 62.6614 -33.4808 32.7684 -7.88769 49.9904 135.467 -27.16 14.6967 -24.9938 18.4989 -26.689 5.13321 6.21806 14.0262 -22.0315 -20.7334 13.5997 3.76873 5.52992 -7.25146 0.387714 
52.1842 98.6637 82.3803 1.46165 -7.17344 163.603 -15.1246 -11.279 -2.98346 11.362 43.4056 -7.76971 7.44823 2.17536 -0.747166 -17.1567 -26.3396 -8.75941 -0.984667 2.73318 2.92696 -1.70906 5.42494 5.82087 -5.29284 0.441065 10.1495 -5.03302e-021 -3.88251e-019 1.21329e-020 -55.3162 -50.8914 -19.4415 -5.98666 38.8196 -113.243 31.8997 1.90862 -23.8703 17.1926 4.96453 22.4777 62.7203 -32.9716 32.3338 -7.80801 49.7013 135.463 -26.6494 14.7228 -25.519 17.9849 -26.9495 4.67325 5.67357 16.0497 -19.1306 -18.5118 11.2867 2.98768 4.45602 -5.63909 1.84697 
52.3747 98.0507 82.5543 1.76971 -6.3292 164.597 -14.5859 -10.7138 -2.97153 11.556 43.6851 -8.7652 6.90005 2.1069 -0.696321 -19.5014 -29.1658 -9.74954 -1.05666 3.14566 2.7088 -1.65725 6.19716 5.44707 -5.21866 0.673728 10.1391 -5.03302e-021 -3.88251e-019 1.21329e-020 -54.9283 -48.5215 -18.283 -4.91871 37.6982 -114.064 32.0203 2.06726 -23.2292 17.0145 4.87685 22.2411 62.8415 -32.5352 32.1899 -7.78008 49.4166 135.508 -26.1529 14.7726 -26.1572 17.4905 -27.4851 4.26965 5.14327 19.0243 -16.2772 -15.9873 7.76189 2.09446 3.03926 -3.69077 3.17504 
52.5944 97.1715 82.7247 2.08644 -5.35509 165.732 -14.0402 -9.73121 -2.52068 12.105 43.8883 -10.3628 6.21771 1.10762 -0.590605 -21.3286 -30.9685 -11.3982 -1.1665 3.63474 2.46544 -1.6251 7.10995 5.02818 -5.05484 0.74239 10.0361 -5.03302e-021 -3.88251e-019 1.21329e-020 -54.8639 -46.17 -17.4711 -4.02878 36.7637 -114.52 32.1532 2.25989 -22.4668 16.9308 4.80054 21.9545 63.0965 -32.2413 32.3262 -7.84037 49.1305 135.673 -25.653 14.8471 -26.9335 16.9619 -28.2812 4.11436 4.91322 22.587 -14.1698 -13.8094 3.75113 1.34076 1.57964 -1.80843 4.05283 
